<?xml version="1.0" encoding="UTF-8"?>
<svg width="1388px" height="322px" viewBox="0 0 1388 322" version="1.1" xmlns="http://www.w3.org/2000/svg" xmlns:xlink="http://www.w3.org/1999/xlink">
    <!-- Generator: Sketch 42 (36781) - http://www.bohemiancoding.com/sketch -->
    <title>Artboard</title>
    <desc>Created with Sketch.</desc>
    <defs>
        <linearGradient x1="49.999963%" y1="100.005534%" x2="49.999963%" y2="-0.0151815736%" id="linearGradient-1">
            <stop stop-color="#1BA94C" offset="0%"></stop>
            <stop stop-color="#32C766" offset="100%"></stop>
        </linearGradient>
    </defs>
    <g id="Page-1" stroke="none" stroke-width="1" fill="none" fill-rule="evenodd">
        <g id="Artboard" fill-rule="nonzero">
            <g id="logo-white-green" transform="translate(1.000000, 2.000000)">
                <path d="M1070.91959,224.725079 C1060.01875,206.890159 1049.08427,189.074868 1038.11614,171.279206 C1037.18251,169.748095 1036.38345,168.14127 1035.35729,166.231587 C1037.78811,165.49127 1039.56286,165.003333 1041.37125,164.406032 C1057.79821,158.878889 1067.91681,145.334444 1068.43831,128.231429 C1069.05232,107.956825 1058.43746,93.7393651 1038.70492,88.86 C1034.2385,87.6645275 1029.65572,86.9565345 1025.03682,86.7484127 C1010.30891,86.3866667 995.597826,86.3950794 980.836274,86.3193651 C972.273733,86.2688889 972.113921,86.4539683 972.113921,94.7909524 L972.113921,225.423333 C972.113921,226.962857 972.113921,228.510794 972.273733,230.041905 C972.467189,232.17873 973.569048,233.617302 975.840056,233.650952 C980.466184,233.726667 985.092311,233.718254 989.72685,233.650952 C991.972624,233.650952 993.19224,232.296508 993.495041,230.193333 C993.634062,228.829571 993.676223,227.457665 993.621208,226.087937 L993.621208,168.040317 C998.777237,168.040317 1003.2015,168.183333 1007.60052,167.989841 C1010.53601,167.855238 1012.32759,168.881587 1013.7743,171.481111 C1017.44156,178.059841 1021.34433,184.495556 1025.23028,190.981746 C1032.8003,203.802698 1040.46285,216.598413 1047.94036,229.478254 C1049.53847,232.212381 1051.30481,234.004286 1054.7702,233.743492 C1058.52157,233.465873 1062.34023,233.785556 1066.07477,233.64254 C1068.50559,233.55 1071.49996,234.685714 1072.98032,231.673968 C1074.41863,228.90619 1072.22332,226.845079 1070.91959,224.725079 Z M1021.85741,148.278889 C1013.19393,148.960317 1004.43794,148.548095 995.715582,148.564921 C995.119244,148.460973 994.537525,148.285859 993.982887,148.043333 L993.982887,106.703333 C994.218399,106.493016 994.470733,106.072381 994.723067,106.072381 C1005.98558,105.811587 1017.26492,105.020794 1028.46856,106.989365 C1030.14975,107.282825 1031.80599,107.704695 1033.42273,108.25127 C1045.09739,112.280952 1050.388,124.319524 1045.51795,135.685079 C1043.83572,139.639048 1041.00958,142.785397 1037.10681,144.232381 C1032.15264,146.015873 1027.01344,147.866667 1021.85741,148.278889 Z M708.264846,191.579048 C708.189145,193.261587 708.054567,194.885238 708.054567,196.534127 L708.054567,227.921905 C708.054567,232.969524 707.356442,233.634127 702.486392,233.718254 C699.063058,233.777143 695.622901,233.819206 692.199567,233.718254 C688.776232,233.617302 687.80054,232.633016 687.590261,229.015556 C687.531384,227.989206 687.590261,226.954444 687.590261,225.928095 L687.590261,94.7488889 C687.590261,93.5542857 687.539795,92.3428571 687.590261,91.148254 C687.80054,87.9177778 688.767821,86.7315873 691.879943,86.5885714 C695.816357,86.4119048 699.778004,86.4203175 703.714418,86.5885714 C706.927474,86.7231746 707.819055,87.7915873 708.029334,91.0809524 C708.113445,92.4438095 708.029334,93.8234921 708.029334,95.1947619 L708.029334,164.086349 C708.029334,165.903492 708.180734,167.720635 708.306901,170.530476 C710.148941,168.999365 711.31809,168.149683 712.344249,167.165397 C722.664719,157.129048 733.018833,147.109524 743.238369,136.96381 C745.076587,134.917381 747.742195,133.813206 750.488772,133.960476 C755.451345,134.137143 760.430741,133.960476 765.401725,134.019365 C767.42881,134.019365 769.699818,133.69127 770.557754,136.282381 C771.348401,138.671587 769.834396,140.110159 768.261513,141.540317 C755.796202,152.813333 743.34491,164.10037 730.907637,175.401429 C729.402042,176.772698 727.930093,178.186032 726.205809,179.80127 C727.257201,181.004286 728.073082,182.064286 729.01513,182.989683 C743.218743,196.909894 757.436375,210.818889 771.668025,224.716667 C772.509139,225.557937 773.636232,226.264603 774.191367,227.240476 C774.847436,228.493968 775.646494,230.24381 775.225937,231.320635 C774.80538,232.39746 773.022218,233.381746 771.701669,233.592063 C769.315135,233.837786 766.91186,233.877191 764.518555,233.709841 C759.90925,233.600476 754.82051,234.593175 750.833629,232.935873 C747.031793,231.362698 744.340228,227.046984 741.236517,223.850159 C732.029122,214.388677 722.844156,204.904762 713.68162,195.398413 C712.268549,193.951429 710.830243,192.538095 709.40035,191.099524 L708.264846,191.579048 Z M1317.90433,191.722063 L1317.90433,201.447143 C1317.90433,210.35619 1317.9548,219.273651 1317.90433,228.182698 C1317.90433,232.733968 1316.94546,233.608889 1312.50438,233.709841 C1309.24927,233.785556 1305.98574,233.785556 1302.73063,233.709841 C1298.23067,233.608889 1297.48208,232.826508 1297.28862,228.216349 L1297.28862,225.128889 L1297.28862,95.0601587 C1297.28862,86.6474603 1297.39797,86.5296825 1305.96051,86.5212698 C1308.53432,86.5212698 1311.11654,86.4119048 1313.67353,86.5885714 C1316.50808,86.7820635 1317.61835,87.9514286 1317.8791,90.7528571 C1318.00526,92.1073016 1317.8791,93.4869841 1317.8791,94.858254 L1317.8791,163.724603 L1317.8791,170.648254 C1320.10805,168.730159 1321.5043,167.661746 1322.75756,166.441905 C1332.58177,156.868254 1342.43963,147.345079 1352.12926,137.645238 C1354.7283,135.045714 1357.36099,133.632381 1361.15442,133.901587 C1365.58709,134.22127 1370.06181,133.952063 1374.51972,133.985714 C1376.68979,133.985714 1379.1879,133.480952 1380.27294,136.198254 C1381.35798,138.915556 1379.2636,140.295238 1377.64866,141.76746 C1365.217,153.068519 1352.77692,164.355556 1340.32843,175.628571 C1338.94059,176.882063 1337.60322,178.152381 1335.84529,179.834921 C1337.16584,181.256667 1338.23406,182.510159 1339.40321,183.654286 C1353.48346,197.439894 1367.57492,211.222698 1381.6776,225.002698 C1382.40937,225.717778 1383.40188,226.323492 1383.80562,227.198413 C1384.41122,228.493968 1385.20187,230.218571 1384.78131,231.329048 C1384.05251,232.587185 1382.76933,233.424066 1381.32433,233.583651 C1374.99074,233.802381 1368.63192,233.903333 1362.30674,233.533175 C1360.62451,233.42381 1358.68154,231.800159 1357.32735,230.420476 C1345.93025,218.794127 1334.61727,207.05 1323.31269,195.356349 C1321.92486,193.92619 1320.47814,192.554921 1319.05666,191.15 L1317.90433,191.722063 Z M877.892322,175.855714 C876.125982,150.222222 858.361653,133.060317 834.860926,131.714286 C814.421853,130.51127 798.440686,138.107937 787.472558,155.522222 C781.130558,165.61746 779.061418,176.856825 780.18851,188.567302 C782.148306,209.430794 792.376253,224.640952 812.075145,232.641429 C823.396541,237.243175 835.146904,237.150635 846.880446,234.063175 C857.352316,231.295397 865.721401,225.271905 872.593303,217.044286 C875.638136,213.401587 875.495147,211.887302 871.954056,208.95127 C870.364351,207.638889 868.724178,206.42746 867.100828,205.140317 C860.893406,200.28619 860.977518,200.361905 855.813077,206.217143 C847.090724,216.110476 836.156241,219.879365 823.404952,216.37127 C811.250853,213.00619 804.168673,204.593492 801.426641,191.284603 C804.067739,191.158413 806.06118,190.981746 808.063031,190.981746 L869.228847,190.981746 C870.599863,190.981746 871.970879,191.040635 873.333484,190.93127 C876.933452,190.645238 877.816622,189.888095 878.010078,186.186508 C878.175026,182.743609 878.135705,179.293957 877.892322,175.855714 L877.892322,175.855714 Z M802.192055,172.894444 C802.495995,171.315013 802.906271,169.757922 803.420081,168.23381 C810.460206,151.551429 828.098368,145.999048 843.07861,152.560952 C851.363584,156.186825 855.384109,163.379683 856.755125,172.894444 L802.192055,172.894444 Z M562.735288,227.509683 C562.23903,220.678571 561.742773,213.839048 561.65025,206.991111 C561.473617,194.136508 561.759595,181.273492 561.549317,168.410476 C561.238105,149.322063 551.17838,136.551587 532.951438,132.732222 C517.698269,129.315591 501.711602,132.291607 488.708838,140.968254 C486.988911,142.09714 485.378188,143.384267 483.897665,144.812857 C481.2818,147.336667 481.197689,148.632222 483.308885,151.467302 C484.435978,152.973175 485.722883,154.369683 486.942498,155.808254 C492.123761,161.949524 492.073294,161.87381 498.650806,157.061746 C508.104928,150.138095 518.66091,148.236825 529.864549,151.332698 C538.048589,153.595714 542.32986,160.973651 540.799032,169.462063 C535.096279,169.706032 529.284181,169.899524 523.480494,170.219206 C514.379639,170.732381 505.379719,171.969048 496.834,175.266825 C488.742482,178.413175 481.744413,183.124286 478.62388,191.58746 C472.206179,208.968095 478.62388,227.089048 497.490069,233.718254 C505.632053,236.570159 513.992727,236.536508 522.370223,235.173651 C529.822494,233.962222 536.248605,230.454127 542.615839,224.75873 C543.095274,226.861905 543.372842,227.963968 543.608353,229.082857 C544.449468,232.977937 545.080303,233.583651 549.067184,233.684603 C551.809216,233.760317 554.551248,233.743492 557.29328,233.684603 C562.390431,233.625714 563.105378,232.666667 562.735288,227.509683 Z M506.590923,216.49746 C502.149841,214.941111 498.82744,212.291111 497.683525,207.411746 C496.371387,201.800476 497.733992,197.661429 502.545164,194.473016 C504.817192,192.948859 507.291747,191.750998 509.896501,190.914444 C519.98987,187.801746 530.335573,187.31381 541.085011,187.498889 C543.80181,208.269841 525.642157,223.143492 506.590923,216.49746 L506.590923,216.49746 Z M1169.27947,227.989206 C1168.6991,221.679683 1168.0935,215.370159 1168.00098,209.026984 C1167.7907,194.447778 1168.14397,179.868571 1167.76547,165.280952 C1167.37855,150.306349 1158.56368,138.907143 1144.44137,134.027778 C1135.27323,130.85619 1125.93686,130.830952 1116.50797,132.437778 C1107.47633,133.880832 1098.98938,137.69544 1091.9138,143.492063 C1087.53159,147.092698 1087.41384,148.539683 1090.91287,152.796508 C1092.32595,154.521111 1093.74743,156.237302 1095.21938,157.911429 C1098.44926,161.570952 1099.55112,161.722381 1103.26043,158.60127 C1110.83045,152.199206 1119.61169,149.675397 1129.47795,150.087619 C1138.94049,150.491429 1148.03293,155.261429 1147.88153,169.159206 C1145.98902,169.352698 1144.33203,169.605079 1142.67503,169.689206 C1138.04891,169.924762 1133.42278,170.000476 1128.80506,170.311746 C1120.2257,170.900635 1111.76409,172.128889 1103.66416,175.199524 C1096.09414,178.068254 1089.61756,182.468095 1085.84937,189.896508 C1077.74944,205.880635 1084.32695,225.574762 1100.82961,232.380635 C1116.51639,238.85 1131.95083,237.840476 1146.09837,227.333016 C1146.99836,226.668413 1148.0077,226.138413 1149.22731,225.38127 C1149.5974,226.946032 1149.84974,228.098571 1150.14413,229.251111 C1151.1787,233.314444 1151.54038,233.64254 1155.70389,233.735079 C1158.62256,233.810794 1161.54122,233.819206 1164.45148,233.735079 C1168.83368,233.583651 1169.6748,232.355397 1169.27947,227.989206 L1169.27947,227.989206 Z M1127.0976,217.355556 C1122.51403,217.819716 1117.88506,217.509734 1113.40426,216.438571 C1107.98749,215.227143 1104.55574,211.533968 1103.90809,205.653492 C1103.26043,199.773016 1105.99405,195.79381 1111.02391,193.202698 C1112.98267,192.161533 1115.03934,191.31617 1117.16404,190.678889 C1126.97143,187.902698 1137.03116,187.414762 1147.39368,187.44 C1150.06843,199.268254 1142.51522,215.445873 1127.0976,217.355556 L1127.0976,217.355556 Z M1209.52678,142.364762 C1211.61274,140.909365 1212.97535,139.916667 1214.38001,138.999683 C1226.99672,130.586984 1240.54707,129.224127 1254.59367,134.31381 C1266.63843,138.68 1272.77856,148.363016 1275.62153,160.334286 C1276.47516,164.176025 1276.89833,168.100908 1276.8832,172.036349 C1277.00936,190.367619 1276.94207,208.707302 1276.93366,227.038571 C1276.93366,228.241587 1277.25329,229.638095 1276.75703,230.58873 C1276.12619,231.791746 1274.87293,233.432222 1273.7879,233.507937 C1269.187,233.844444 1264.53564,233.735079 1259.92634,233.64254 C1259.04891,233.677463 1258.19594,233.348837 1257.56868,232.734201 C1256.94142,232.119564 1256.59543,231.273356 1256.61235,230.395238 C1256.503,229.032381 1256.52824,227.661111 1256.52824,226.289841 C1256.52824,211.550794 1256.59552,196.845397 1256.52824,182.081111 C1256.50089,177.458683 1256.18627,172.842426 1255.58619,168.259048 C1254.55162,160.561429 1251.60772,153.848095 1243.50779,151.30746 C1234.9873,148.640635 1226.85373,149.574444 1219.9566,155.783016 C1214.90991,160.31746 1212.38657,166.307302 1211.2006,172.835556 C1210.56867,176.548654 1210.25073,180.308413 1210.25014,184.074921 C1210.14079,198.469048 1210.25014,212.863175 1210.19967,227.257302 C1210.19967,233.205079 1209.66977,233.693016 1203.75674,233.743492 C1200.83807,233.743492 1197.92782,233.802381 1195.01756,233.743492 C1190.71947,233.634127 1189.89518,232.809683 1189.71854,228.695873 C1189.66808,227.333016 1189.65126,225.986984 1189.65126,224.624127 C1189.65126,221.620794 1189.65126,175.578095 1189.60079,151.071905 C1189.60079,147.143175 1189.0793,143.214444 1188.95313,139.294127 C1188.82696,135.087778 1189.71854,134.196032 1193.99981,134.086667 C1197.07829,134.00254 1200.16518,134.019365 1203.25207,134.086667 C1207.99595,134.162381 1208.41651,134.56619 1209.07258,139.252063 C1209.10622,139.983968 1209.25762,140.8 1209.52678,142.364762 L1209.52678,142.364762 Z M632.345889,236.427143 C617.205835,236.132698 603.9667,231.598254 593.326607,220.594444 C586.221149,213.276507 581.61336,203.897257 580.163171,193.8 C578.23702,181.315556 579.41458,169.192857 585.529479,157.869365 C593.629408,142.894762 606.447986,134.742857 623.026345,132.134921 C633.408315,130.434456 644.061237,131.845352 653.642897,136.189841 C659.484531,138.722628 664.635388,142.616774 668.665195,147.546984 C671.264237,150.74381 671.087603,152.350635 667.874547,154.815556 C665.023171,157.01127 662.062449,159.063968 659.101728,161.108254 C656.956887,162.588889 654.896157,162.504762 653.213929,160.309048 C645.896237,150.65127 635.945857,148.413492 624.775862,150.853175 C613.235777,153.376984 605.859206,160.872698 602.435872,172.044762 C599.54447,181.128241 600.092287,190.957849 603.975111,199.663651 C613.143254,220.695397 642.069168,222.798571 653.668131,208.185714 C656.61203,204.484127 657.545667,204.61873 661.355913,207.344444 C663.593277,208.926032 665.788585,210.574921 667.950248,212.25746 C671.895073,215.31127 672.155818,217.02746 668.892296,220.670159 C662.668051,227.59381 655.123258,232.540476 645.99717,234.61 C641.556088,235.560635 636.913138,235.821429 632.345889,236.427143 Z M918.055519,142.061905 C919.737747,140.8 920.662973,140.101746 921.588198,139.378254 C930.655408,132.286349 940.933822,130.242063 952.103817,132.084444 C956.385088,132.791111 957.234613,133.935238 956.814056,138.377143 C956.544899,141.271111 956.099109,144.148254 955.670141,147.025397 C954.938371,151.988889 953.802867,152.619841 948.840294,152.073016 C945.132984,151.553602 941.375935,151.491444 937.653477,151.887937 C930.924565,152.830159 926.130214,156.843016 923.00127,162.824444 C920.091347,168.488039 918.61822,174.780327 918.711588,181.147302 L918.711588,225.869206 C918.711588,227.06381 918.787288,228.275238 918.711588,229.461429 C918.442432,232.422698 917.47515,233.566825 914.632185,233.667778 C910.527548,233.827619 906.406089,233.836032 902.301452,233.667778 C899.281853,233.55 898.491206,232.633016 898.179993,229.537143 C898.072021,228.000114 898.043946,226.458513 898.095882,224.918571 L898.095882,169.916349 C898.045415,160.149206 897.776259,150.390476 897.540747,140.623333 C897.397757,134.507302 897.751025,134.053016 903.655646,134.00254 C906.389267,134.00254 909.131299,133.952063 911.873331,134.00254 C916.356469,134.086667 916.676092,134.381111 917.584495,138.839841 C917.677018,139.655873 917.794774,140.480317 918.055519,142.061905 Z M365.090301,167.888889 L365.090301,230.142857 C365.090301,232.557302 363.500596,233.718254 361.019309,233.735079 L347.654007,233.735079 C345.130664,233.735079 343.70077,232.338571 343.70077,229.890476 L343.70077,94.0842857 C343.70077,86.6306349 343.953105,86.3950794 351.582009,86.3698413 L358.781946,86.3698413 C364.316476,86.4707937 365.023012,87.1606349 365.090301,92.5868254 L365.090301,147.269365 L434.490624,147.269365 L434.490624,92.8728571 C434.557913,87.4466667 435.264449,86.7484127 440.79898,86.6474603 C443.204566,86.6053968 445.601741,86.6474603 447.998916,86.6474603 C455.627821,86.6474603 455.880155,86.8998413 455.880155,94.3619048 L455.880155,230.159683 C455.880155,232.607778 454.425028,233.98746 451.93533,234.004286 C447.477425,234.046349 443.019521,234.004286 438.561616,234.004286 C436.08033,234.004286 434.490624,232.826508 434.490624,230.420476 L434.490624,167.939365 L365.090301,167.888889 Z" id="Shape" fill="#FFFFFF"></path>
                <path d="M287.534848,159.361746 C287.555373,183.415927 286.193325,207.451398 283.455445,231.349206 C282.885949,236.195573 280.38366,240.606485 276.516253,243.58127 C276.205041,243.825238 275.877007,244.052381 275.548972,244.287937 C256.492679,258.400498 236.64656,271.413671 216.10744,283.263968 C195.420278,295.186969 174.081413,305.941233 152.191181,315.47619 C151.879969,315.644444 151.551935,315.770635 151.240723,315.913651 C146.567566,317.799969 141.749518,317.799969 137.429629,316.073492 C137.017483,315.888413 136.588515,315.728571 136.167958,315.518254 C114.191649,305.957103 92.8299766,295.168964 72.1255323,283.205079 C51.5609729,271.367118 31.6920815,258.359361 12.6167112,244.245873 C12.2802656,244.010317 11.9522311,243.783175 11.6410189,243.539206 C7.80498864,240.561578 5.32101917,236.171409 4.7438834,231.349206 C-0.711928817,183.739343 -0.740147029,135.663539 4.659772,88.0473016 C4.71864998,87.3911111 4.78593911,86.7265079 4.8868728,86.0703175 C5.56309361,82.0103844 7.60103592,78.3016513 10.6653265,75.5544444 C11.5400852,74.8898413 12.3223213,74.3093651 13.1045573,73.754127 C51.6563056,45.2986436 93.2973033,21.2881261 137.236173,2.17888889 C137.50533,2.05269841 137.791308,1.95174603 138.077287,1.82555556 C141.866819,0.393664999 146.043289,0.363827544 149.852884,1.74142857 C150.534187,2.01063492 150.988388,2.22095238 151.44259,2.42285714 C195.281192,21.5102024 236.819022,45.4988539 275.262993,73.9307937 C275.927474,74.3850794 276.583543,74.8814286 277.248023,75.3946032 C280.494968,78.2412968 282.574312,81.9788658 283.261988,86.0787302 C283.362922,86.7349206 283.430211,87.3995238 283.489089,88.0557143 C286.183319,111.728869 287.534071,135.535713 287.534848,159.361746 Z" id="Shape" fill="url(#linearGradient-1)"></path>
                <path d="M204.656202,223.252857 L199.432884,223.252857 L199.432884,95.7079365 C199.432884,94.7641447 199.058033,93.8590081 198.390795,93.1916465 C197.723557,92.5242849 196.818588,92.1493651 195.874971,92.1493651 L169.329411,92.1493651 C167.36443,92.1493651 165.771498,93.7425918 165.771498,95.7079365 L165.771498,145.073651 L118.399953,145.073651 L118.399953,100.814444 L123.631683,100.814444 C125.156689,100.818671 126.528147,99.8868547 127.086174,98.4673433 C127.644201,97.0478318 127.274528,95.431302 126.155025,94.3955556 L104.092603,73.8685714 C102.669597,72.5476119 100.468924,72.5476119 99.0459182,73.8685714 L76.9919071,94.3955556 C75.872404,95.431302 75.5027308,97.0478318 76.0607578,98.4673433 C76.6187848,99.8868547 77.9902434,100.818671 79.5152493,100.814444 L84.7469789,100.814444 L84.7469789,228.350952 C84.7469789,230.316297 86.3399106,231.909524 88.3048914,231.909524 L114.850452,231.909524 C116.815433,231.909524 118.408364,230.316297 118.408364,228.350952 L118.408364,178.993651 L165.779909,178.993651 L165.779909,223.252857 L160.54818,223.252857 C159.027086,223.252373 157.660597,224.182817 157.103371,225.598433 C156.546145,227.014049 156.911673,228.626516 158.024837,229.663333 L180.08726,250.190317 C181.507023,251.519511 183.71418,251.519511 185.133944,250.190317 L207.187955,229.663333 C208.302252,228.625471 208.667292,227.010925 208.107893,225.59451 C207.548494,224.178095 206.178832,223.248906 204.656202,223.252857 L204.656202,223.252857 Z" id="Shape" fill="#FFFFFF"></path>
            </g>
        </g>
    </g>
</svg>